<svg width="202" height="170" viewBox="0 0 202 170" xmlns="http://www.w3.org/2000/svg" xmlns:xlink="http://www.w3.org/1999/xlink">
    <defs>
        <path id="a" d="M0 .722h201.4V117H0z"/>
    </defs>
    <g fill="none" fill-rule="evenodd">
        <g transform="translate(0 53)">
            <mask id="b" fill="#fff">
                <use xlink:href="#a"/>
            </mask>
            <path d="M2.417 39.205C.806 40.136 0 41.362 0 42.588s.806 2.453 2.417 3.383l120.609 69.633c3.223 1.861 8.496 1.861 11.718 0l64.239-37.087c1.612-.93 2.417-2.158 2.417-3.383 0-1.227-.806-2.453-2.417-3.383L78.373 2.117c-3.221-1.86-8.495-1.86-11.717 0L2.416 39.205z" fill="#00BEA5" opacity=".2" mask="url(#b)"/>
        </g>
        <path d="M39 19.534V86.39L66.849 70.31l-9.694-54.405c-.043-.188-.611-2.495-2.654-3.777-.514-.298-1.604-.037-2.449.373L39 19.534zM38 18l21.992 4.805M37 33l25.578 5.588M37 49l28.859 6.306M37 65l31.534 6.89M38 81l11.479 2.508M47.231 13L37 27.049M58.395 14L37 43.38M60.921 26L37 58.849M63.912 38L38 73.582M65.407 51L37 90.008" stroke="#33475C" stroke-width="5" stroke-linecap="round" stroke-linejoin="round"/>
        <path stroke="#33475C" stroke-width="5" stroke-linecap="round" stroke-linejoin="round" d="M68.285 64l-1.651 2.268L57 79.497"/>
        <path d="M39 19.537v66.855l27.849-16.08-9.694-54.404c-.043-.188-.611-2.495-2.654-3.777-.514-.298-1.604-.037-2.449.373L39 19.537zM35 97.32c-.691 0-1.381-.18-2-.536-1.238-.714-2-2.035-2-3.464V17.148c0-1.47.808-2.823 2.103-3.521l15.214-8.198c.039-.022.079-.042.118-.062 3.533-1.758 7.193-1.823 10.042-.18.062.036.162.097.262.159 5.1 3.2 6.178 8.519 6.284 9.115l10.194 57.212c.295 1.658-.48 3.324-1.938 4.166L37 96.784c-.619.357-1.31.536-2 .536z" stroke="#33475C" stroke-width="5" stroke-linecap="round" stroke-linejoin="round"/>
        <path d="M57.477 9.654c-2.364-1.365-5.149-.257-6.259.296l-.499.27L36 18.15l29.47 17.015 64.111 37.013 14.719-7.93.499-.269c1.11-.553 3.895-1.66 6.259-.297L57.477 9.654z" stroke="#33475C" stroke-width="5" stroke-linecap="round" stroke-linejoin="round"/>
        <path d="M129.115 74.03c-.51 0-1.025-.13-1.497-.403L37.5 21.598c-1.435-.828-1.927-2.663-1.098-4.097.828-1.434 2.664-1.928 4.098-1.098l90.117 52.028c1.435.828 1.926 2.663 1.098 4.098-.556.962-1.564 1.501-2.601 1.501zM163.98 129.53c-.508 0-1.024-.13-1.496-.403L71.5 76.597c-1.435-.827-1.927-2.662-1.098-4.096.828-1.435 2.664-1.927 4.098-1.098l90.983 52.528c1.435.828 1.926 2.663 1.098 4.098-.556.962-1.564 1.5-2.601 1.5z" stroke="#33475C" stroke-width="5" stroke-linecap="round" stroke-linejoin="round"/>
        <path d="M133 73.535v66.855l27.849-16.078-9.694-54.405c-.043-.187-.611-2.496-2.654-3.778-.514-.3-1.606-.036-2.451.375L133 73.534zM132 72l21.992 4.806M131 87l25.578 5.589M131 103l28.859 6.306M131 119l31.534 6.89M131 135l11.479 2.508M141.231 68L131 82.05M152.395 68L131 97.379M154.921 80L131 112.848M157.912 92L132 127.582M159.407 105L131 144.009" stroke="#33475C" stroke-width="5" stroke-linecap="round" stroke-linejoin="round"/>
        <path stroke="#33475C" stroke-width="5" stroke-linecap="round" stroke-linejoin="round" d="M161.285 118l-1.651 2.267L150 133.496"/>
        <path d="M133 73.537v66.855l27.849-16.078-9.694-54.405c-.043-.187-.611-2.496-2.654-3.778-.514-.299-1.606-.036-2.451.375L133 73.537zm-4 77.784c-.691 0-1.381-.179-2-.536-1.238-.714-2-2.035-2-3.464V71.148c0-1.47.808-2.823 2.103-3.52l15.219-8.2.113-.06c3.533-1.759 7.192-1.825 10.041-.18l.263.158c5.1 3.201 6.178 8.52 6.284 9.117l10.194 57.21c.295 1.658-.48 3.324-1.938 4.166L131 150.785c-.619.357-1.309.536-2 .536zM75.53 72.036c.005.031.004.062.009.095l49.355 28.494V72.693L70 41l5.53 31.036zM73 55l11.215 21.643M80 47l20.653 39.855M97 56l20.653 39.856M113 66l11.487 22.168M124.56 76L116 95.417M114.814 67L105 89.26M103.816 61L94 83.266M92.816 54L83 76.266M81.582 48L74 65.199" stroke="#33475C" stroke-width="5" stroke-linecap="round" stroke-linejoin="round"/>
        <path d="M75.53 72.036c.005.031.004.062.009.095l49.355 28.494V72.693L70 41l5.53 31.036zM45 13.635c1.723-.103 3.46-.351 5.174-.494 6.175-.516 12.462.391 18.248 2.605M51 23l10.383.678c8.887.583 17.87 1.182 26.378 3.816.365.112.729.23 1.091.35M71 35c4.988.158 9.969.551 14.945.942 2.827.223 5.656.446 8.463.848 5.481.786 10.819 2.246 16.077 3.997M92 47.381c11.938-1.075 24.052.133 35.542 3.511M113 59l7.655.731c5.919.566 11.884 1.142 17.708 2.289M48 12c3.192 4.6 6.089 9.402 8.668 14.371" stroke="#33475C" stroke-width="5" stroke-linecap="round" stroke-linejoin="round"/>
        <path d="M64 14c2.671 3.39 4.736 7.276 6.338 11.297 1.479 3.711 2.585 7.551 3.56 11.428M83 24c1.912 2.979 3.353 6.28 4.443 9.657 1.203 3.733 2 7.576 2.683 11.442M103 36c1.11 3.293 1.711 6.777 2.297 10.218.514 3.014 1.005 5.98 1.519 8.995M119 45c2.674 6.104 3.786 12.959 4.655 19.697M136 55c.511 2.383.863 4.8 1.052 7.229" stroke="#33475C" stroke-width="5" stroke-linecap="round" stroke-linejoin="round"/>
        <path d="M128.194 67.156l14.29-7.698.112-.059c.307-.153.616-.276.924-.403L58.057 9.654c-2.364-1.365-5.149-.257-6.259.296l-.499.27L40 16.305c.186.064.368.144.544.246l87.65 50.604z" stroke="#33475C" stroke-width="5" stroke-linecap="round" stroke-linejoin="round"/>
        <path d="M39 19.534V86.39L66.849 70.31l-9.694-54.405c-.043-.188-.611-2.495-2.654-3.777-.514-.298-1.604-.037-2.449.373L39 19.534z" fill="#FFF"/>
        <path d="M39 19.534V86.39L66.849 70.31l-9.694-54.405c-.043-.188-.611-2.495-2.654-3.777-.514-.298-1.604-.037-2.449.373L39 19.534z" stroke="#33475C" stroke-linecap="round" stroke-linejoin="round"/>
        <path d="M38 18l21.992 4.805M37 33l25.578 5.588M37 49l28.859 6.306M37 65l31.534 6.89M38 81l11.479 2.508M47.231 13L37 27.049M58.395 14L37 43.38M60.921 26L37 58.849M63.912 38L38 73.582M65.407 51L37 90.008M68.285 64l-1.651 2.268L57 79.497" stroke="#CBD6E3" stroke-linecap="round" stroke-linejoin="round"/>
        <path d="M39 19.537v66.855l27.849-16.08-9.694-54.404c-.043-.188-.611-2.495-2.654-3.777-.514-.298-1.604-.037-2.449.373L39 19.537zM35 97.32c-.691 0-1.381-.18-2-.536-1.238-.714-2-2.035-2-3.464V17.148c0-1.47.808-2.823 2.103-3.521l15.214-8.198c.039-.022.079-.042.118-.062 3.533-1.758 7.193-1.823 10.042-.18.062.036.162.097.262.159 5.1 3.2 6.178 8.519 6.284 9.115l10.194 57.212c.295 1.658-.48 3.324-1.938 4.166L37 96.784c-.619.357-1.31.536-2 .536z" fill="#EAF0F6"/>
        <path d="M39 19.537v66.855l27.849-16.08-9.694-54.404c-.043-.188-.611-2.495-2.654-3.777-.514-.298-1.604-.037-2.449.373L39 19.537zM35 97.32c-.691 0-1.381-.18-2-.536-1.238-.714-2-2.035-2-3.464V17.148c0-1.47.808-2.823 2.103-3.521l15.214-8.198c.039-.022.079-.042.118-.062 3.533-1.758 7.193-1.823 10.042-.18.062.036.162.097.262.159 5.1 3.2 6.178 8.519 6.284 9.115l10.194 57.212c.295 1.658-.48 3.324-1.938 4.166L37 96.784c-.619.357-1.31.536-2 .536z" stroke="#33475C" stroke-linecap="round" stroke-linejoin="round"/>
        <path d="M57.477 9.654c-2.364-1.365-5.149-.257-6.259.296l-.499.27L36 18.15l29.47 17.015 64.111 37.013 14.719-7.93.499-.269c1.11-.553 3.895-1.66 6.259-.297L57.477 9.654z" fill="#FFF"/>
        <path d="M57.477 9.654c-2.364-1.365-5.149-.257-6.259.296l-.499.27L36 18.15l29.47 17.015 64.111 37.013 14.719-7.93.499-.269c1.11-.553 3.895-1.66 6.259-.297L57.477 9.654z" stroke="#33475C" stroke-linecap="round" stroke-linejoin="round"/>
        <path d="M129.115 74.03c-.51 0-1.025-.13-1.497-.403L37.5 21.598c-1.435-.828-1.927-2.663-1.098-4.097.828-1.434 2.664-1.928 4.098-1.098l90.117 52.028c1.435.828 1.926 2.663 1.098 4.098-.556.962-1.564 1.501-2.601 1.501" fill="#EAF0F6"/>
        <path d="M129.115 74.03c-.51 0-1.025-.13-1.497-.403L37.5 21.598c-1.435-.828-1.927-2.663-1.098-4.097.828-1.434 2.664-1.928 4.098-1.098l90.117 52.028c1.435.828 1.926 2.663 1.098 4.098-.556.962-1.564 1.501-2.601 1.501z" stroke="#33475C" stroke-linecap="round" stroke-linejoin="round"/>
        <path d="M163.98 129.53c-.508 0-1.024-.13-1.496-.403L71.5 76.597c-1.435-.827-1.927-2.662-1.098-4.096.828-1.435 2.664-1.927 4.098-1.098l90.983 52.528c1.435.828 1.926 2.663 1.098 4.098-.556.962-1.564 1.5-2.601 1.5" fill="#EAF0F6"/>
        <path d="M163.98 129.53c-.508 0-1.024-.13-1.496-.403L71.5 76.597c-1.435-.827-1.927-2.662-1.098-4.096.828-1.435 2.664-1.927 4.098-1.098l90.983 52.528c1.435.828 1.926 2.663 1.098 4.098-.556.962-1.564 1.5-2.601 1.5z" stroke="#33475C" stroke-linecap="round" stroke-linejoin="round"/>
        <path d="M133 73.535v66.855l27.849-16.078-9.694-54.405c-.043-.187-.611-2.496-2.654-3.778-.514-.3-1.606-.036-2.451.375L133 73.534z" fill="#FFF"/>
        <path d="M133 73.535v66.855l27.849-16.078-9.694-54.405c-.043-.187-.611-2.496-2.654-3.778-.514-.3-1.606-.036-2.451.375L133 73.534z" stroke="#33475C" stroke-linecap="round" stroke-linejoin="round"/>
        <path d="M132 72l21.992 4.806M131 87l25.578 5.589M131 103l28.859 6.306M131 119l31.534 6.89M131 135l11.479 2.508M141.231 68L131 82.05M152.395 68L131 97.379M154.921 80L131 112.848M157.912 92L132 127.582M159.407 105L131 144.009M161.285 118l-1.651 2.267L150 133.496" stroke="#CBD6E3" stroke-linecap="round" stroke-linejoin="round"/>
        <path d="M133 73.537v66.855l27.849-16.078-9.694-54.405c-.043-.187-.611-2.496-2.654-3.778-.514-.299-1.606-.036-2.451.375L133 73.537zm-4 77.784c-.691 0-1.381-.179-2-.536-1.238-.714-2-2.035-2-3.464V71.148c0-1.47.808-2.823 2.103-3.52l15.219-8.2.113-.06c3.533-1.759 7.192-1.825 10.041-.18l.263.158c5.1 3.201 6.178 8.52 6.284 9.117l10.194 57.21c.295 1.658-.48 3.324-1.938 4.166L131 150.785c-.619.357-1.309.536-2 .536z" fill="#EAF0F6"/>
        <path d="M133 73.537v66.855l27.849-16.078-9.694-54.405c-.043-.187-.611-2.496-2.654-3.778-.514-.299-1.606-.036-2.451.375L133 73.537zm-4 77.784c-.691 0-1.381-.179-2-.536-1.238-.714-2-2.035-2-3.464V71.148c0-1.47.808-2.823 2.103-3.52l15.219-8.2.113-.06c3.533-1.759 7.192-1.825 10.041-.18l.263.158c5.1 3.201 6.178 8.52 6.284 9.117l10.194 57.21c.295 1.658-.48 3.324-1.938 4.166L131 150.785c-.619.357-1.309.536-2 .536z" stroke="#33475C" stroke-linecap="round" stroke-linejoin="round"/>
        <path d="M75.53 72.036c.005.031.004.062.009.095l49.355 28.494V72.693L70 41l5.53 31.036z" fill="#FFF"/>
        <path d="M75.53 72.036c.005.031.004.062.009.095l49.355 28.494V72.693L70 41l5.53 31.036z" stroke="#33475C" stroke-linecap="round" stroke-linejoin="round"/>
        <path d="M73 55l11.215 21.643M80 47l20.653 39.855M97 56l20.653 39.856M113 66l11.487 22.168M124.56 76L116 95.417M114.814 67L105 89.26M103.816 61L94 83.266M92.816 54L83 76.266M81.582 48L74 65.199" stroke="#CBD6E3" stroke-linecap="round" stroke-linejoin="round"/>
        <path d="M75.53 72.036c.005.031.004.062.009.095l49.355 28.494V72.693L70 41l5.53 31.036z" stroke="#33475C" stroke-linecap="round" stroke-linejoin="round"/>
        <path d="M45 13.635c1.723-.103 3.46-.351 5.174-.494 6.175-.516 12.462.391 18.248 2.605M51 23l10.383.678c8.887.583 17.87 1.182 26.378 3.816.365.112.729.23 1.091.35M71 35c4.988.158 9.969.551 14.945.942 2.827.223 5.656.446 8.463.848 5.481.786 10.819 2.246 16.077 3.997M92 47.381c11.938-1.075 24.052.133 35.542 3.511M113 59l7.655.731c5.919.566 11.884 1.142 17.708 2.289M48 12c3.192 4.6 6.089 9.402 8.668 14.371" stroke="#CBD6E3" stroke-linecap="round" stroke-linejoin="round"/>
        <path d="M64 14c2.671 3.39 4.736 7.276 6.338 11.297 1.479 3.711 2.585 7.551 3.56 11.428M83 24c1.912 2.979 3.353 6.28 4.443 9.657 1.203 3.733 2 7.576 2.683 11.442M103 36c1.11 3.293 1.711 6.777 2.297 10.218.514 3.014 1.005 5.98 1.519 8.995M119 45c2.674 6.104 3.786 12.959 4.655 19.697M136 55c.511 2.383.863 4.8 1.052 7.229" stroke="#CBD6E3" stroke-linecap="round" stroke-linejoin="round"/>
        <path d="M128.194 67.156l14.29-7.698.112-.059c.307-.153.616-.276.924-.403L58.057 9.654c-2.364-1.365-5.149-.257-6.259.296l-.499.27L40 16.305c.186.064.368.144.544.246l87.65 50.604z" stroke="#33475C" stroke-linecap="round" stroke-linejoin="round"/>
        <path d="M155.428 35.426c-7.418 7.418-19.446 7.418-26.864 0-7.418-7.418-7.418-19.445 0-26.863 7.418-7.418 19.446-7.418 26.864 0 7.417 7.418 7.417 19.445 0 26.863z" stroke="#33475C" stroke-width="5" stroke-linecap="round" stroke-linejoin="round"/>
        <path d="M139 12.563s4.75-2.25 7.937-2.563c0 0 2.813 2.376 5.376 6.688 0 0-1.375 3.171-4.125 6.929 0 0-7.688-2.241-8.626-2.804 0 0-.5-6.438-.562-8.25zM142 3c.45.108 4.705 1.176 5.711 3.011 0 0 1.834-.178 4.029-.143C148.763 4.012 145.391 3.052 142 3z" stroke="#33475C" stroke-width="5" stroke-linecap="round" stroke-linejoin="round"/>
        <path d="M152.029 6.005c-2.195-.035-4.029.143-4.029.143l-1 3.875s2.812 2.375 5.375 6.687c0 0 3.875.125 5.937 1.438 0 0 .384-1.973.766-4.304-.902-1.861-2.106-3.612-3.65-5.157-1.047-1.048-2.194-1.931-3.399-2.682z" stroke="#33475C" stroke-width="5" stroke-linecap="round" stroke-linejoin="round"/>
        <path d="M158.766 14c-.381 2.331-.766 4.304-.766 4.304s1.688 4.616 1.313 7.651l.943.258c.863-4.085.361-8.391-1.49-12.213zM154 36.644c.333-.29.67-.575.988-.893 2.7-2.701 4.406-6.014 5.14-9.493l-.943-.258s-2.625 5.304-4.313 6.327c0 0-.202 2.088-.872 4.317z" stroke="#33475C" stroke-width="5" stroke-linecap="round" stroke-linejoin="round"/>
        <path d="M159.375 25.089c.375-3.035-1.312-7.651-1.312-7.651C156 16.125 152.125 16 152.125 16s-1.375 3.171-4.125 6.929c0 0 1.518 6.206 1.571 7.482 0 0 3.679 1.294 5.492 1.004 1.687-1.022 4.312-6.326 4.312-6.326zM154.292 36.321c.67-2.229.872-4.317.872-4.317-1.812.29-5.491-1.004-5.491-1.004s-4.901 4.742-6.673 5.321c0 0 1.404 2.737 2.916 4.216 3.121-.681 6.093-2.162 8.614-4.431-.08.069-.157.146-.238.215zM134.273 5c-2 .915-3.881 2.175-5.527 3.821-1.602 1.602-2.836 3.426-3.746 5.365l1.869 1.721c.812-2.187 6.125-5.75 6.125-5.75.256-2.325.746-3.976 1.279-5.157z" stroke="#33475C" stroke-width="5" stroke-linecap="round" stroke-linejoin="round"/>
        <path d="M148.356 6.013c-1.005-1.834-5.255-2.9-5.71-3.01-3.331-.052-6.664.775-9.646 2.465.475-.267.958-.513 1.448-.737-.533 1.18-1.024 2.832-1.28 5.157 0 0 4.5 1.562 6.25 2.562 0 0 4.751-2.25 7.938-2.562l1-3.875zM126.65 23.588c-.93-3.005.015-7.866.015-7.866L124.796 14c-2.386 5.083-2.395 10.988-.027 16.077 1.091-5.884 1.881-6.489 1.881-6.489z" stroke="#33475C" stroke-width="5" stroke-linecap="round" stroke-linejoin="round"/>
        <path d="M132.55 10s-4.654 3.12-5.916 5.313l-.21.437s-.945 4.861-.015 7.866c0 0 5.557 2.613 6.682 2.613l6.27-5.416s-.5-6.438-.562-8.25c-1.75-1.001-6.25-2.563-6.25-2.563z" stroke="#33475C" stroke-width="5" stroke-linecap="round" stroke-linejoin="round"/>
        <path d="M133.564 25.612c-1.125 0-6.681-2.612-6.681-2.612s-.79.605-1.881 6.489l-.002.019c.911 1.955 2.162 3.79 3.774 5.403.191.19.396.355.593.535 2.856-.684 6.364-2.042 6.364-2.042-.917-1.208-2.167-7.792-2.167-7.792z" stroke="#33475C" stroke-width="5" stroke-linecap="round" stroke-linejoin="round"/>
        <path d="M147.896 23.804s-7.687-2.241-8.625-2.804L133 26.416s1.25 6.584 2.167 7.792c0 0 4.546 2.258 7.627 2.4 1.773-.579 6.673-5.322 6.673-5.322-.053-1.276-1.571-7.482-1.571-7.482z" stroke="#33475C" stroke-width="5" stroke-linecap="round" stroke-linejoin="round"/>
        <path d="M155.428 35.426c-7.418 7.418-19.446 7.418-26.864 0-7.418-7.418-7.418-19.445 0-26.863 7.418-7.418 19.446-7.418 26.864 0 7.417 7.418 7.417 19.445 0 26.863" fill="#FFF"/>
        <path d="M155.428 35.426c-7.418 7.418-19.446 7.418-26.864 0-7.418-7.418-7.418-19.445 0-26.863 7.418-7.418 19.446-7.418 26.864 0 7.417 7.418 7.417 19.445 0 26.863z" stroke="#33475C" stroke-linecap="round" stroke-linejoin="round"/>
        <path d="M139 12.563s4.75-2.25 7.937-2.563c0 0 2.813 2.376 5.376 6.688 0 0-1.375 3.171-4.125 6.929 0 0-7.688-2.241-8.626-2.804 0 0-.5-6.438-.562-8.25" fill="#506E91"/>
        <path d="M139 12.563s4.75-2.25 7.937-2.563c0 0 2.813 2.376 5.376 6.688 0 0-1.375 3.171-4.125 6.929 0 0-7.688-2.241-8.626-2.804 0 0-.5-6.438-.562-8.25z" stroke="#33475C" stroke-linecap="round" stroke-linejoin="round"/>
        <path d="M142 3c.45.108 4.705 1.176 5.711 3.011 0 0 1.834-.178 4.029-.143C148.763 4.012 145.391 3.052 142 3" fill="#506E91"/>
        <path d="M142 3c.45.108 4.705 1.176 5.711 3.011 0 0 1.834-.178 4.029-.143C148.763 4.012 145.391 3.052 142 3zM152.029 6.005c-2.195-.035-4.029.143-4.029.143l-1 3.875s2.812 2.375 5.375 6.687c0 0 3.875.125 5.937 1.438 0 0 .384-1.973.766-4.304-.902-1.861-2.106-3.612-3.65-5.157-1.047-1.048-2.194-1.931-3.399-2.682z" stroke="#33475C" stroke-linecap="round" stroke-linejoin="round"/>
        <path d="M158.766 14c-.381 2.331-.766 4.304-.766 4.304s1.688 4.616 1.313 7.651l.943.258c.863-4.085.361-8.391-1.49-12.213" fill="#506E91"/>
        <path d="M158.766 14c-.381 2.331-.766 4.304-.766 4.304s1.688 4.616 1.313 7.651l.943.258c.863-4.085.361-8.391-1.49-12.213zM154 36.644c.333-.29.67-.575.988-.893 2.7-2.701 4.406-6.014 5.14-9.493l-.943-.258s-2.625 5.304-4.313 6.327c0 0-.202 2.088-.872 4.317z" stroke="#33475C" stroke-linecap="round" stroke-linejoin="round"/>
        <path d="M159.375 25.089c.375-3.035-1.312-7.651-1.312-7.651C156 16.125 152.125 16 152.125 16s-1.375 3.171-4.125 6.929c0 0 1.518 6.206 1.571 7.482 0 0 3.679 1.294 5.492 1.004 1.687-1.022 4.312-6.326 4.312-6.326z" stroke="#33475C" stroke-linecap="round" stroke-linejoin="round"/>
        <path d="M154.292 36.321c.67-2.229.872-4.317.872-4.317-1.812.29-5.491-1.004-5.491-1.004s-4.901 4.742-6.673 5.321c0 0 1.404 2.737 2.916 4.216 3.121-.681 6.093-2.162 8.614-4.431-.08.069-.157.146-.238.215" fill="#506E91"/>
        <path d="M154.292 36.321c.67-2.229.872-4.317.872-4.317-1.812.29-5.491-1.004-5.491-1.004s-4.901 4.742-6.673 5.321c0 0 1.404 2.737 2.916 4.216 3.121-.681 6.093-2.162 8.614-4.431-.08.069-.157.146-.238.215z" stroke="#33475C" stroke-linecap="round" stroke-linejoin="round"/>
        <path d="M134.273 5c-2 .915-3.881 2.175-5.527 3.821-1.602 1.602-2.836 3.426-3.746 5.365l1.869 1.721c.812-2.187 6.125-5.75 6.125-5.75.256-2.325.746-3.976 1.279-5.157" fill="#506E91"/>
        <path d="M134.273 5c-2 .915-3.881 2.175-5.527 3.821-1.602 1.602-2.836 3.426-3.746 5.365l1.869 1.721c.812-2.187 6.125-5.75 6.125-5.75.256-2.325.746-3.976 1.279-5.157z" stroke="#33475C" stroke-linecap="round" stroke-linejoin="round"/>
        <path d="M148.356 6.013c-1.005-1.834-5.255-2.9-5.71-3.01-3.331-.052-6.664.775-9.646 2.465.475-.267.958-.513 1.448-.737-.533 1.18-1.024 2.832-1.28 5.157 0 0 4.5 1.562 6.25 2.562 0 0 4.751-2.25 7.938-2.562l1-3.875zM126.65 23.588c-.93-3.005.015-7.866.015-7.866L124.796 14c-2.386 5.083-2.395 10.988-.027 16.077 1.091-5.884 1.881-6.489 1.881-6.489z" stroke="#33475C" stroke-linecap="round" stroke-linejoin="round"/>
        <path d="M132.55 10s-4.654 3.12-5.916 5.313l-.21.437s-.945 4.861-.015 7.866c0 0 5.557 2.613 6.682 2.613l6.27-5.416s-.5-6.438-.562-8.25c-1.75-1.001-6.25-2.563-6.25-2.563z" stroke="#33475C" stroke-linecap="round" stroke-linejoin="round"/>
        <path d="M133.564 25.612c-1.125 0-6.681-2.612-6.681-2.612s-.79.605-1.881 6.489l-.002.019c.911 1.955 2.162 3.79 3.774 5.403.191.19.396.355.593.535 2.856-.684 6.364-2.042 6.364-2.042-.917-1.208-2.167-7.792-2.167-7.792" fill="#506E91"/>
        <path d="M133.564 25.612c-1.125 0-6.681-2.612-6.681-2.612s-.79.605-1.881 6.489l-.002.019c.911 1.955 2.162 3.79 3.774 5.403.191.19.396.355.593.535 2.856-.684 6.364-2.042 6.364-2.042-.917-1.208-2.167-7.792-2.167-7.792z" stroke="#33475C" stroke-linecap="round" stroke-linejoin="round"/>
        <path d="M147.896 23.804s-7.687-2.241-8.625-2.804L133 26.416s1.25 6.584 2.167 7.792c0 0 4.546 2.258 7.627 2.4 1.773-.579 6.673-5.322 6.673-5.322-.053-1.276-1.571-7.482-1.571-7.482z" stroke="#33475C" stroke-linecap="round" stroke-linejoin="round"/>
        <g opacity=".2">
            <path d="M75.599 72.158c-.006-.032-.005-.063-.01-.095l-5.53-31.036-9.057-5.229 6.22 34.906-23.617 13.633-6.233 12.838 34.78-20.08 52.802 30.485v-6.928L75.599 72.158z" fill="#33475C"/>
            <path d="M75.599 72.158c-.006-.032-.005-.063-.01-.095l-5.53-31.036-9.057-5.229 6.22 34.906-23.617 13.633-6.233 12.838 34.78-20.08 52.802 30.485v-6.928L75.599 72.158z" stroke="#33475C" stroke-linecap="round" stroke-linejoin="round"/>
        </g>
    </g>
</svg>
